<svg xmlns="http://www.w3.org/2000/svg" width="500" height="900" viewBox="0 0 500 900">
  <rect width="500" height="900" fill="#e8edf0"/>
  <rect x="34" y="28" width="432" height="844" rx="34" fill="#fff" stroke="#c8d2d8" stroke-width="3"/>
  <rect x="34" y="28" width="432" height="82" rx="34" fill="#182733"/>
  <circle cx="84" cy="70" r="24" fill="#778893"/>
  <path d="M75 70h18M84 61v18" stroke="#dce4e8" stroke-width="4"/>
  <text x="120" y="64" font-family="Arial" font-size="18" font-weight="700" fill="#fff">Źródło</text>
  <text x="120" y="87" font-family="Arial" font-size="13" fill="#b9c6ce">konto prywatne</text>
  <rect x="72" y="158" width="318" height="138" rx="22" fill="#e7f1fa"/>
  <text x="94" y="194" font-family="Arial" font-size="17" fill="#273740">Proszę to nagłośnić, zanim</text>
  <text x="94" y="221" font-family="Arial" font-size="17" fill="#273740">usuną dokument. Wszyscy w</text>
  <text x="94" y="248" font-family="Arial" font-size="17" fill="#273740">urzędzie już o tym wiedzą.</text>
  <text x="319" y="278" font-family="Arial" font-size="12" fill="#78909c">23:41 ✓✓</text>
  <rect x="72" y="326" width="356" height="78" rx="18" fill="#f1f4f6"/>
  <path d="M99 351h36v28H99z" fill="#c6d0d6"/><path d="M104 368l9-8 8 7 6-5 8 11h-31z" fill="#8799a4"/>
  <text x="151" y="355" font-family="Arial" font-size="14" font-weight="700" fill="#3e4d55">plan_etap_I_final.pdf</text>
  <text x="151" y="379" font-family="Arial" font-size="12" fill="#84939c">1,8 MB • dokument</text>
  <rect x="72" y="450" width="278" height="104" rx="22" fill="#e7f1fa"/>
  <text x="94" y="486" font-family="Arial" font-size="17" fill="#273740">Nie mogę podać nazwiska.</text>
  <text x="94" y="513" font-family="Arial" font-size="17" fill="#273740">Mam rodzinę i pracę.</text>
  <text x="278" y="539" font-family="Arial" font-size="12" fill="#78909c">23:43 ✓✓</text>
  <text x="250" y="834" text-anchor="middle" font-family="Arial" font-size="13" fill="#97a6ae">zrzut ekranu bez danych nadawcy i metadanych</text>
</svg>
